<svg xmlns="http://www.w3.org/2000/svg" viewBox="0 0 48 48" fill="none">
  <defs>
    <linearGradient id="cloudGradient" x1="0%" y1="0%" x2="100%" y2="100%">
      <stop offset="0%" stop-color="#6366f1"/>
      <stop offset="50%" stop-color="#8b5cf6"/>
      <stop offset="100%" stop-color="#06b6d4"/>
    </linearGradient>
    <linearGradient id="arrowGradient" x1="0%" y1="0%" x2="100%" y2="0%">
      <stop offset="0%" stop-color="#06b6d4"/>
      <stop offset="100%" stop-color="#22d3ee"/>
    </linearGradient>
    <filter id="shadow" x="-20%" y="-20%" width="140%" height="140%">
      <feDropShadow dx="0" dy="2" stdDeviation="2" flood-color="#6366f1" flood-opacity="0.3"/>
    </filter>
  </defs>

  <!-- Cloud shape -->
  <path
    d="M38 24c0-1.1-.9-2-2-2h-1c0-4.97-4.03-9-9-9-3.92 0-7.26 2.51-8.48 6.02C15.93 18.37 14.01 17 11.8 17 8.58 17 6 19.58 6 22.8c0 .4.04.79.11 1.17C4.27 24.9 3 26.81 3 29c0 3.31 2.69 6 6 6h27c3.31 0 6-2.69 6-6 0-2.12-1.1-3.98-2.76-5.05.17-.63.26-1.28.26-1.95.34 0 .5 0 .5 0-.17.64-.17.64-.17.64C39.9 23.64 38 24 38 24z"
    fill="url(#cloudGradient)"
    filter="url(#shadow)"
  />

  <!-- Upload arrow -->
  <g transform="translate(24, 26)">
    <path
      d="M0 -8L-5 -2H-2.5V4H2.5V-2H5L0 -8Z"
      fill="white"
      opacity="0.95"
    />
  </g>

  <!-- Decorative dots -->
  <circle cx="13" cy="28" r="1.5" fill="white" opacity="0.6"/>
  <circle cx="17" cy="31" r="1" fill="white" opacity="0.4"/>
  <circle cx="32" cy="27" r="1.5" fill="white" opacity="0.6"/>
  <circle cx="35" cy="30" r="1" fill="white" opacity="0.4"/>
</svg>
